<svg width="164" height="276" viewBox="0 0 164 276" fill="none" xmlns="http://www.w3.org/2000/svg">
<path d="M190.909 75.4545C190.909 117.127 157.127 150.909 115.455 150.909C73.7822 150.909 40 117.127 40 75.4545C40 33.7822 73.7822 0 115.455 0C157.127 0 190.909 33.7822 190.909 75.4545ZM85.2727 75.4545C85.2727 92.1235 98.7856 105.636 115.455 105.636C132.124 105.636 145.636 92.1235 145.636 75.4545C145.636 58.7856 132.124 45.2727 115.455 45.2727C98.7856 45.2727 85.2727 58.7856 85.2727 75.4545Z" fill="url(#paint0_linear_144_2770)"/>
<path d="M231.818 294.091C231.818 263.35 219.606 233.868 197.869 212.131C176.132 190.394 146.65 178.182 115.909 178.182C85.1681 178.182 55.6862 190.394 33.949 212.131C12.2118 233.868 4.64176e-06 263.35 0 294.091L45.5973 294.091C45.5973 275.443 53.0051 257.559 66.1912 244.373C79.3772 231.187 97.2613 223.779 115.909 223.779C134.557 223.779 152.441 231.187 165.627 244.373C178.813 257.559 186.221 275.443 186.221 294.091H231.818Z" fill="url(#paint1_linear_144_2770)"/>
<defs>
<linearGradient id="paint0_linear_144_2770" x1="80.7283" y1="-20.8417" x2="164.998" y2="133.009" gradientUnits="userSpaceOnUse">
<stop stop-color="#288FCE"/>
<stop offset="1" stop-color="#194A8D"/>
</linearGradient>
<linearGradient id="paint1_linear_144_2770" x1="62.5646" y1="146.166" x2="192.015" y2="382.502" gradientUnits="userSpaceOnUse">
<stop stop-color="#288FCE"/>
<stop offset="1" stop-color="#194A8D"/>
</linearGradient>
</defs>
</svg>
