<svg width="275" height="74" viewBox="0 0 275 74" fill="none" xmlns="http://www.w3.org/2000/svg">
<path d="M49.04 0.703995C54.416 0.703995 59.28 1.81333 63.632 4.032C67.984 6.16533 71.3973 9.536 73.872 14.144C76.432 18.752 77.712 24.7253 77.712 32.064V72H48.784V37.056C48.784 32.704 48.016 29.632 46.48 27.84C44.944 25.9627 42.8533 25.024 40.208 25.024C38.2453 25.024 36.4107 25.4933 34.704 26.432C33.0827 27.2853 31.76 28.736 30.736 30.784C29.7973 32.832 29.328 35.6053 29.328 39.104V72H0.4V1.98399H27.92V22.464L22.416 16.576C25.1467 11.2853 28.816 7.31733 33.424 4.672C38.1173 2.02666 43.3227 0.703995 49.04 0.703995ZM130.181 73.28C121.648 73.28 114.181 71.7013 107.781 68.544C101.466 65.3867 96.5597 61.0773 93.061 55.616C89.5623 50.0693 87.813 43.84 87.813 36.928C87.813 29.8453 89.5197 23.5733 92.933 18.112C96.4317 12.6507 101.168 8.384 107.141 5.312C113.2 2.24 119.984 0.703995 127.493 0.703995C134.405 0.703995 140.762 2.06933 146.565 4.8C152.453 7.53066 157.146 11.584 160.645 16.96C164.229 22.336 166.021 28.992 166.021 36.928C166.021 37.952 165.978 39.104 165.893 40.384C165.808 41.5787 165.722 42.688 165.637 43.712H111.749V29.76H150.277L139.397 33.472C139.397 30.7413 138.885 28.4373 137.861 26.56C136.922 24.5973 135.6 23.104 133.893 22.08C132.186 20.9707 130.138 20.416 127.749 20.416C125.36 20.416 123.269 20.9707 121.477 22.08C119.77 23.104 118.448 24.5973 117.509 26.56C116.57 28.4373 116.101 30.7413 116.101 33.472V37.824C116.101 40.8107 116.698 43.3707 117.893 45.504C119.088 47.6373 120.794 49.2587 123.013 50.368C125.232 51.392 127.92 51.904 131.077 51.904C134.32 51.904 136.965 51.4773 139.013 50.624C141.146 49.7707 143.365 48.4907 145.669 46.784L160.773 62.016C157.36 65.6853 153.136 68.5013 148.101 70.464C143.152 72.3413 137.178 73.28 130.181 73.28ZM191.052 72L166.732 1.98399H194.124L212.556 58.816H199.372L218.7 1.98399H243.276L261.708 58.816H248.908L267.98 1.98399H293.324L269.004 72H240.844L226.124 26.944H234.572L219.212 72H191.052Z" fill="url(#paint0_linear_144_2992)"/>
<defs>
<linearGradient id="paint0_linear_144_2992" x1="80.3636" y1="-73.5448" x2="131.898" y2="119.45" gradientUnits="userSpaceOnUse">
<stop stop-color="#288FCE"/>
<stop offset="1" stop-color="#194A8D"/>
</linearGradient>
</defs>
</svg>
