<svg width="40" height="40" viewBox="0 0 40 40" fill="none" xmlns="http://www.w3.org/2000/svg">
<rect y="0.000183105" width="40" height="40" rx="4" fill="#216FAF"/>
<path d="M11.4922 17.508H12.8047C13.0007 17.508 13.1852 17.565 13.3584 17.6789C13.5316 17.7883 13.6546 17.9318 13.7275 18.1096L15.5938 22.3683L17.4531 18.1096C17.526 17.9318 17.6491 17.7883 17.8223 17.6789C17.9954 17.565 18.18 17.508 18.376 17.508H19.6953C19.8548 17.508 19.9596 17.5672 20.0098 17.6857C20.0326 17.7313 20.0417 17.7905 20.0371 17.8635C20.0371 17.9318 20.0166 18.0139 19.9756 18.1096L17.0225 24.3986C16.9404 24.5764 16.8105 24.7222 16.6328 24.8361C16.4596 24.9455 16.2796 25.0002 16.0928 25.0002H15.0879C14.901 25.0002 14.721 24.9455 14.5479 24.8361C14.3747 24.7222 14.2471 24.5764 14.165 24.3986L11.2119 18.1096C11.1663 18.0093 11.1436 17.925 11.1436 17.8566C11.1436 17.6242 11.2598 17.508 11.4922 17.508ZM28.092 24.6994C28.092 24.8999 27.9735 25.0002 27.7366 25.0002H26.4446C26.0071 25.0002 25.6584 24.786 25.3987 24.3576L24.5305 22.9426C24.1568 22.3364 23.6145 22.0334 22.9036 22.0334V24.5832C22.9036 24.7062 22.8625 24.8065 22.7805 24.884C22.703 24.9614 22.6051 25.0002 22.4866 25.0002H20.9553C20.8323 25.0002 20.732 24.9614 20.6545 24.884C20.5771 24.8065 20.5383 24.7062 20.5383 24.5832V15.6213C20.5383 15.4982 20.5771 15.398 20.6545 15.3205C20.7366 15.2385 20.8368 15.1974 20.9553 15.1974H22.4866C22.6096 15.1974 22.7099 15.2385 22.7873 15.3205C22.8648 15.398 22.9036 15.4982 22.9036 15.6213V20.4748C23.6965 20.4748 24.2388 20.1672 24.5305 19.5519L25.1868 18.1574C25.2779 17.9614 25.4123 17.8042 25.5901 17.6857C25.7678 17.5672 25.9592 17.508 26.1643 17.508H27.4563C27.6842 17.508 27.7981 17.5969 27.7981 17.7746C27.7981 17.8749 27.7616 18.0025 27.6887 18.1574L26.8069 20.0168C26.6565 20.3267 26.4514 20.5933 26.1916 20.8166C25.9319 21.0399 25.6516 21.1835 25.3508 21.2473C25.9114 21.4159 26.3967 21.826 26.8069 22.4777L27.969 24.3576C28.0465 24.4898 28.0875 24.6037 28.092 24.6994Z" fill="#E6EAF2"/>
</svg>
