<svg width="40" height="40" viewBox="0 0 40 40" fill="none" xmlns="http://www.w3.org/2000/svg">
<rect y="0.000183105" width="40" height="40" rx="4" fill="#216FAF"/>
<path d="M21.6271 20.0613L18.3106 21.9564V18.1662L21.6271 20.0613Z" fill="#E6EAF2" stroke="#E6EAF2" stroke-width="1.5" stroke-linecap="round" stroke-linejoin="round"/>
<path d="M10.2564 20.7317V19.3908C10.2564 16.6473 10.2564 15.2755 11.1144 14.3929C11.9724 13.5103 13.3232 13.4721 16.0248 13.3957C17.305 13.3595 18.6127 13.3335 19.732 13.3335C20.8512 13.3335 22.1589 13.3595 23.4391 13.3957C26.1407 13.4721 27.4915 13.5103 28.3495 14.3929C29.2075 15.2755 29.2075 16.6473 29.2075 19.3908V20.7317C29.2075 23.4751 29.2075 24.8469 28.3495 25.7295C27.4915 26.6121 26.1408 26.6503 23.4392 26.7268C22.1589 26.763 20.8512 26.7889 19.732 26.7889C18.6127 26.7889 17.305 26.763 16.0248 26.7268C13.3232 26.6503 11.9724 26.6121 11.1144 25.7295C10.2564 24.8469 10.2564 23.4751 10.2564 20.7317Z" stroke="#E6EAF2" stroke-width="1.5"/>
</svg>
