<svg width="33" height="20" viewBox="0 0 33 20" fill="none" xmlns="http://www.w3.org/2000/svg">
<path fill-rule="evenodd" clip-rule="evenodd" d="M23.0194 0.000244141H17.1704V4.71719H23.0194V0.000244141ZM17.1697 4.71733V12.3588C17.1697 16.579 20.5909 20.0002 24.8112 20.0002C29.0315 20.0002 32.4527 16.5791 32.4527 12.3588C32.4527 8.13853 29.0315 4.71733 24.8112 4.71733L17.1697 4.71733ZM22.2657 12.454C22.3157 13.921 23.5207 15.095 25 15.095C26.5109 15.095 27.7358 13.8701 27.7358 12.3592C27.7358 10.8797 26.5615 9.67457 25.0942 9.62492L25.0942 4.71778L23.0187 4.71778L23.0187 10.3785L17.1698 10.3785L17.1698 12.454H22.2657Z" fill="url(#paint0_linear_371_962)"/>
<path fill-rule="evenodd" clip-rule="evenodd" d="M15.2829 17.9249V10.2835C15.2829 10.2561 15.2828 10.2287 15.2825 10.2013V10.1888H15.2823C15.2317 6.0122 11.8301 2.64203 7.64146 2.64203C3.4212 2.64203 0 6.06323 0 10.2835C0 14.4721 3.37002 17.8735 7.54654 17.9244V17.9251H9.622V17.9249H15.2829ZM9.622 17.9249V12.1709L9.62214 12.1707V12.2643H15.2825V10.2013C15.2824 10.1971 15.2824 10.193 15.2823 10.1888H10.3756C10.3257 8.72173 9.12066 7.54769 7.64139 7.54769C6.13044 7.54769 4.90556 8.77257 4.90556 10.2835C4.90556 11.7627 6.0795 12.9678 7.54654 13.0177V17.9244C7.57813 17.9248 7.60977 17.9249 7.64146 17.9249H9.622Z" fill="url(#paint1_linear_371_962)"/>
<defs>
<linearGradient id="paint0_linear_371_962" x1="21.2946" y1="-2.76188" x2="33.8458" y2="14.7484" gradientUnits="userSpaceOnUse">
<stop stop-color="#288FCE"/>
<stop offset="1" stop-color="#194A8D"/>
</linearGradient>
<linearGradient id="paint1_linear_371_962" x1="4.12465" y1="0.531345" x2="12.6589" y2="16.1121" gradientUnits="userSpaceOnUse">
<stop stop-color="#288FCE"/>
<stop offset="1" stop-color="#194A8D"/>
</linearGradient>
</defs>
</svg>
