<svg width="39" height="24" viewBox="0 0 39 24" fill="none" xmlns="http://www.w3.org/2000/svg">
<path fill-rule="evenodd" clip-rule="evenodd" d="M27.6238 0H20.6049V5.66038H27.6238V0ZM20.6042 5.66054L20.6042 14.8304C20.6042 19.8947 24.7097 24.0002 29.774 24.0002C34.8384 24.0002 38.9438 19.8947 38.9438 14.8304C38.9438 9.76601 34.8384 5.66054 29.774 5.66054L20.6042 5.66054ZM26.719 14.9446C26.7789 16.705 28.225 18.1138 30.0001 18.1138C31.8132 18.1138 33.2831 16.644 33.2831 14.8308C33.2831 13.0555 31.874 11.6093 30.1132 11.5497L30.1132 5.66106L27.6226 5.66106L27.6226 12.454H20.6039L20.6039 14.9446L26.719 14.9446Z" fill="#E6EAF2"/>
<path fill-rule="evenodd" clip-rule="evenodd" d="M18.3396 21.5098V12.34C18.3396 12.316 18.3395 12.292 18.3394 12.268V12.2264H18.3389C18.2781 7.21438 14.1962 3.17017 9.16982 3.17017C4.10547 3.17017 0 7.27563 0 12.34C0 17.3664 4.04421 21.4483 9.05621 21.5091V21.5099H11.5468V21.5098H18.3396ZM11.5468 21.5098V14.6047L11.5469 14.6046V14.717H18.3394V12.268C18.3393 12.2541 18.3391 12.2403 18.3389 12.2264L12.451 12.2264C12.3911 10.4658 10.945 9.05702 9.16988 9.05702C7.35672 9.05702 5.88686 10.5269 5.88686 12.34C5.88686 14.1152 7.29568 15.5612 9.05621 15.6211V21.5091C9.09403 21.5096 9.1319 21.5098 9.16982 21.5098H11.5468Z" fill="#E6EAF2"/>
</svg>
